<?xml version="1.0" encoding="UTF-8" standalone="no"?>
<!DOCTYPE svg PUBLIC "-//W3C//DTD SVG 1.1//EN" "http://www.w3.org/Graphics/SVG/1.1/DTD/svg11.dtd">
<svg width="100%" height="100%" viewBox="0 0 1000 1000" version="1.1" xmlns="http://www.w3.org/2000/svg" xmlns:xlink="http://www.w3.org/1999/xlink" xml:space="preserve" xmlns:serif="http://www.serif.com/" style="fill-rule:evenodd;clip-rule:evenodd;stroke-linejoin:round;stroke-miterlimit:2;">
    <g transform="matrix(1,0,0,1,-2915.73,0)">
        <g id="logo" transform="matrix(1,0,0,1,2915.73,0)">
            <rect x="0" y="0" width="1000" height="1000" style="fill:none;"/>
            <g transform="matrix(2.86197,0,0,2.86197,-32,-319.642)">
                <g transform="matrix(1.22084,-6.93889e-18,6.93889e-18,1.22084,-1910.73,-2162.62)">
                    <circle cx="1695.58" cy="2025.98" r="99.866" style="fill:rgb(246,194,36);"/>
                </g>
                <g transform="matrix(0.935939,7.63278e-17,-7.63278e-17,0.935939,-1346.05,-1662.65)">
                    <circle cx="1695.58" cy="2025.98" r="99.866" style="fill:rgb(31,91,217);"/>
                </g>
                <g transform="matrix(1,-4.85723e-17,4.85723e-17,1,-3335.27,-640.883)">
                    <path d="M3494.09,829.745L3494.58,829.743C3561.87,829.743 3616.5,884.374 3616.5,951.663C3616.5,954.085 3616.43,956.491 3616.29,958.872C3604.13,964.661 3590.53,967.9 3576.19,967.9C3524.6,967.9 3482.72,926.018 3482.72,874.432C3482.72,858.249 3486.84,843.022 3494.09,829.745Z" style="fill:rgb(44,44,44);"/>
                </g>
            </g>
        </g>
    </g>
</svg>
